# xmcd
#
# Track frame offsets:
#	150
#	25519
#	46280
#	68394
#	81891
#	93380
#	113957
#	141404
#	158969
#	182468
#	200784
#	218454
#	235887
#
# Disc length: 3629 seconds
#
# Revision: 0
# Processed by: cddbd v1.5.2PL0 Copyright (c) Steve Scherf et al.
# Submitted via: audiograbber 1.83.01
#
DISCID=a80e2b0d
DTITLE=Dixie Chicks - DCX MMXVI CD2
DYEAR=2017
DGENRE=Country
TTITLE0=Travelin' Soldier (Acoustic)
TTITLE1=Don't Let Me Die In Florida (Acoustic)
TTITLE2=Daddy Lessons (Acoustic)
TTITLE3=White Trash Wedding (Acoustic)
TTITLE4=Bluegrass Instrumental
TTITLE5=Ready To Run
TTITLE6=Mississippi
TTITLE7=Landslide
TTITLE8=Cowboy Take Me Away
TTITLE9=Wide Open Spaces
TTITLE10=Sin Wagon
TTITLE11=Not Ready To Make Nice
TTITLE12=Better Way
EXTD=
EXTT0=
EXTT1=
EXTT2=
EXTT3=
EXTT4=
EXTT5=
EXTT6=
EXTT7=
EXTT8=
EXTT9=
EXTT10=
EXTT11=
EXTT12=
PLAYORDER=
